<svg width="16" height="14" viewBox="0 0 16 14" fill="none" xmlns="http://www.w3.org/2000/svg">
<path d="M3.8174 1.59148C3.8172 2.00135 3.65418 2.39435 3.36421 2.68403C3.07424 2.97371 2.68108 3.13633 2.27121 3.13613C1.86134 3.13592 1.46834 2.97291 1.17866 2.68294C0.888982 2.39297 0.726358 1.99981 0.726563 1.58994C0.726768 1.18006 0.889785 0.787062 1.17975 0.497385C1.46972 0.207707 1.86288 0.0450833 2.27275 0.0452883C2.68263 0.0454932 3.07563 0.20851 3.36531 0.498477C3.65498 0.788445 3.81761 1.18161 3.8174 1.59148ZM3.86376 4.28051H0.772925V13.9548H3.86376V4.28051ZM8.74729 4.28051H5.67191V13.9548H8.71638V8.87813C8.71638 6.05002 12.4022 5.78729 12.4022 8.87813V13.9548H15.4544V7.82725C15.4544 3.05963 9.99908 3.23735 8.71638 5.57866L8.74729 4.28051Z" fill="black"/>
</svg>
