<svg width="17" height="16" viewBox="0 0 17 16" fill="none" xmlns="http://www.w3.org/2000/svg">
<path d="M5.21609 0.272827H11.7069C14.1795 0.272827 16.1886 2.28187 16.1886 4.75454V11.2453C16.1886 12.4339 15.7164 13.5739 14.8759 14.4144C14.0354 15.2548 12.8955 15.727 11.7069 15.727H5.21609C2.74342 15.727 0.734375 13.718 0.734375 11.2453V4.75454C0.734375 3.56592 1.20655 2.42598 2.04704 1.58549C2.88752 0.745007 4.02747 0.272827 5.21609 0.272827ZM5.06155 1.81825C4.32378 1.81825 3.61623 2.11132 3.09455 2.633C2.57287 3.15468 2.27979 3.86223 2.27979 4.6V11.3998C2.27979 12.9375 3.52386 14.1816 5.06155 14.1816H11.8614C12.5992 14.1816 13.3067 13.8885 13.8284 13.3668C14.3501 12.8452 14.6432 12.1376 14.6432 11.3998V4.6C14.6432 3.06231 13.3991 1.81825 11.8614 1.81825H5.06155ZM12.5182 2.97731C12.7744 2.97731 13.02 3.07907 13.2012 3.26021C13.3823 3.44135 13.4841 3.68703 13.4841 3.9432C13.4841 4.19937 13.3823 4.44504 13.2012 4.62618C13.02 4.80732 12.7744 4.90909 12.5182 4.90909C12.262 4.90909 12.0164 4.80732 11.8352 4.62618C11.6541 4.44504 11.5523 4.19937 11.5523 3.9432C11.5523 3.68703 11.6541 3.44135 11.8352 3.26021C12.0164 3.07907 12.262 2.97731 12.5182 2.97731ZM8.46147 4.13638C9.48615 4.13638 10.4689 4.54343 11.1934 5.26798C11.918 5.99254 12.325 6.97525 12.325 7.99992C12.325 9.0246 11.918 10.0073 11.1934 10.7319C10.4689 11.4564 9.48615 11.8635 8.46147 11.8635C7.4368 11.8635 6.45409 11.4564 5.72953 10.7319C5.00497 10.0073 4.59792 9.0246 4.59792 7.99992C4.59792 6.97525 5.00497 5.99254 5.72953 5.26798C6.45409 4.54343 7.4368 4.13638 8.46147 4.13638ZM8.46147 5.6818C7.84667 5.6818 7.25704 5.92603 6.82231 6.36076C6.38757 6.79549 6.14334 7.38512 6.14334 7.99992C6.14334 8.61473 6.38757 9.20436 6.82231 9.63909C7.25704 10.0738 7.84667 10.3181 8.46147 10.3181C9.07628 10.3181 9.6659 10.0738 10.1006 9.63909C10.5354 9.20436 10.7796 8.61473 10.7796 7.99992C10.7796 7.38512 10.5354 6.79549 10.1006 6.36076C9.6659 5.92603 9.07628 5.6818 8.46147 5.6818Z" fill="black"/>
</svg>
