<svg width="18" height="14" viewBox="0 0 18 14" fill="none" xmlns="http://www.w3.org/2000/svg">
<path d="M17.0791 1.9773C16.4842 2.24775 15.8428 2.42548 15.1783 2.51047C15.8583 2.10094 16.3837 1.45186 16.631 0.671425C15.9896 1.05778 15.2787 1.32823 14.5292 1.48277C13.9188 0.81824 13.0611 0.431885 12.0874 0.431885C10.2716 0.431885 8.78797 1.91549 8.78797 3.74681C8.78797 4.00953 8.81888 4.26452 8.87297 4.50406C6.12213 4.36498 3.67264 3.04364 2.04222 1.04233C1.75632 1.52913 1.59405 2.10094 1.59405 2.70365C1.59405 3.85499 2.17358 4.87497 3.06992 5.4545C2.5213 5.4545 2.01131 5.29996 1.56314 5.06814V5.09132C1.56314 6.69856 2.70675 8.04307 4.22126 8.34443C3.7351 8.47806 3.22449 8.49658 2.72993 8.39852C2.9398 9.05724 3.35083 9.63363 3.90523 10.0467C4.45964 10.4597 5.12954 10.6886 5.82077 10.7012C4.64909 11.6288 3.19665 12.1302 1.70223 12.123C1.43951 12.123 1.17678 12.1075 0.914062 12.0766C2.38221 13.0193 4.12853 13.5679 5.99849 13.5679C12.0874 13.5679 15.4333 8.51443 15.4333 4.13316C15.4333 3.98635 15.4333 3.84726 15.4255 3.70045C16.0746 3.23682 16.631 2.64956 17.0791 1.9773Z" fill="black"/>
</svg>
