<svg width="17" height="12" viewBox="0 0 17 12" fill="none" xmlns="http://www.w3.org/2000/svg">
<path d="M7.00199 8.31804L11.0124 5.99991L7.00199 3.68178V8.31804ZM15.9345 2.26772C16.035 2.6309 16.1045 3.1177 16.1509 3.73587C16.205 4.35404 16.2281 4.88721 16.2281 5.35083L16.2745 5.99991C16.2745 7.69214 16.1509 8.93621 15.9345 9.7321C15.7413 10.4275 15.2932 10.8757 14.5977 11.0689C14.2346 11.1693 13.57 11.2389 12.55 11.2852C11.5455 11.3393 10.626 11.3625 9.77602 11.3625L8.54741 11.4089C5.30976 11.4089 3.29298 11.2852 2.49709 11.0689C1.80165 10.8757 1.35348 10.4275 1.1603 9.7321C1.05985 9.36893 0.990309 8.88212 0.943946 8.26395C0.889856 7.64578 0.866675 7.11261 0.866675 6.64899L0.820312 5.99991C0.820312 4.30768 0.943946 3.06361 1.1603 2.26772C1.35348 1.57228 1.80165 1.12411 2.49709 0.930935C2.86027 0.830482 3.5248 0.760938 4.54477 0.714576C5.5493 0.660486 6.46882 0.637305 7.3188 0.637305L8.54741 0.590942C11.7851 0.590942 13.8018 0.714576 14.5977 0.930935C15.2932 1.12411 15.7413 1.57228 15.9345 2.26772Z" fill="black"/>
</svg>
