<svg width="1280" height="140" viewBox="0 0 1280 140" fill="none" xmlns="http://www.w3.org/2000/svg">
<g clip-path="url(#clip0_1510_10084)">
<rect width="1280" height="140" fill="url(#paint0_linear_1510_10084)"/>
<path d="M874.885 -63.1284C461.148 3.21857 195.755 31.0162 23.5979 -48.4612C-39.6595 -90.9169 -74.1429 -137.826 -64.6701 -171.485C-114.676 -148.318 -111.286 -125.818 -98.3918 -83.6149C-74.0395 -32.0052 -48.8054 -11.8867 -2.16722 22.7554C133.833 126.47 380.946 105.768 864.485 42.4076C1072.24 15.1849 1241.54 -17.4015 1312.46 61.9141C1327.84 82.9466 1328.82 95.2558 1320.41 117.887C1335.02 135.643 1347.55 138.445 1374.96 135.111C1403.03 111.355 1393.66 85.8507 1362.47 33.3208C1248.83 -104.513 1112.47 -87.0147 874.885 -63.1284Z" fill="white" stroke="white" stroke-width="4.8661"/>
</g>
<defs>
<linearGradient id="paint0_linear_1510_10084" x1="640" y1="-41" x2="640" y2="140" gradientUnits="userSpaceOnUse">
<stop stop-color="white"/>
<stop offset="1" stop-color="#729F9D"/>
</linearGradient>
<clipPath id="clip0_1510_10084">
<rect width="1280" height="140" fill="white"/>
</clipPath>
</defs>
</svg>
